<?xml version="1.0" encoding="utf-8"?>
<svg viewBox="0 0 3072 3072" width="3072pt" height="3072pt" xmlns="http://www.w3.org/2000/svg" xmlns:xlink="http://www.w3.org/1999/xlink" xmlns:bx="https://boxy-svg.com">
  <defs>
    <linearGradient id="gradient-3-0" gradientUnits="userSpaceOnUse" x1="15340" y1="13465" x2="15340" y2="29037.002" gradientTransform="matrix(0.999999, -0.000446, 0.000785, 1.759457, -22.769625, -22045.52669)" xlink:href="#gradient-3"/>
    <linearGradient id="gradient-3" bx:pinned="true">
      <stop offset="0" style="stop-color: rgb(73, 23, 243);"/>
      <stop offset="1" style="stop-color: rgb(192, 1, 221);"/>
    </linearGradient>
    <linearGradient id="gradient-3-1" gradientUnits="userSpaceOnUse" x1="15340" y1="6615" x2="15340" y2="15475" gradientTransform="matrix(1, 0, 0, 3.094116, 0, -18816.035173)" xlink:href="#gradient-3"/>
    <linearGradient id="gradient-3-2" gradientUnits="userSpaceOnUse" x1="15340" y1="1625" x2="15340" y2="8850" gradientTransform="matrix(1, -0.000253, 0.000962, 3.797793, -1.562547, -4542.530034)" xlink:href="#gradient-3"/>
  </defs>
  <g transform="matrix(1, 0, 0, 1, 1.1368683772161603e-13, 0)">
    <g transform="matrix(0.1, 0, 0, -0.1, 0, 3072)" fill="#000000" stroke="none">
      <path d="M14468 27895 l-868 -1144 0 -4903 0 -4903 1740 -1740 1740 -1740 0 6647 0 6647 -863 1137 c-475 626 -867 1139 -873 1141 -5 1 -399 -513 -876 -1142z" style="fill: url('#gradient-3-0');"/>
      <path d="M13600 13735 l0 -1740 -1020 -1020 -1020 -1020 0 -1670 0 -1670 1890 1890 1890 1890 1890 -1890 1890 -1890 0 1670 0 1670 -2760 2760 -2760 2760 0 -1740z" style="fill: url('#gradient-3-1');"/>
      <path d="M14767 8282 l-567 -567 0 -2475 0 -2475 570 -570 570 -570 570 570 570 570 0 2475 0 2475 -568 568 c-312 312 -569 567 -572 567 -3 0 -260 -255 -573 -568z" style="fill: url('#gradient-3-2');"/>
    </g>
  </g>
</svg>